<mxfile host="app.diagrams.net" modified="2023-05-26T22:02:28.387Z" agent="Mozilla/5.0 (Windows NT 10.0; Win64; x64) AppleWebKit/537.36 (KHTML, like Gecko) Chrome/112.0.0.0 Safari/537.36 OPR/98.0.0.0" etag="QCo4h637ur7YJZZRqsTf" version="21.3.4" type="github">
  <diagram name="PÃ¡gina-1" id="pgC6iii4llwk433DtZOT">
    <mxGraphModel dx="1441" dy="774" grid="1" gridSize="10" guides="1" tooltips="1" connect="1" arrows="1" fold="1" page="1" pageScale="1" pageWidth="827" pageHeight="1169" math="0" shadow="0">
      <root>
        <mxCell id="0" />
        <mxCell id="1" parent="0" />
        <mxCell id="bZ_3XIyZTwR2hqBgu9SZ-13" style="edgeStyle=orthogonalEdgeStyle;rounded=0;orthogonalLoop=1;jettySize=auto;html=1;entryX=0;entryY=0.5;entryDx=0;entryDy=0;fillColor=#a20025;strokeColor=#6F0000;" edge="1" parent="1" source="bZ_3XIyZTwR2hqBgu9SZ-1" target="bZ_3XIyZTwR2hqBgu9SZ-2">
          <mxGeometry relative="1" as="geometry" />
        </mxCell>
        <mxCell id="bZ_3XIyZTwR2hqBgu9SZ-14" style="edgeStyle=orthogonalEdgeStyle;rounded=0;orthogonalLoop=1;jettySize=auto;html=1;entryX=0;entryY=0.5;entryDx=0;entryDy=0;fillColor=#a20025;strokeColor=#6F0000;" edge="1" parent="1" source="bZ_3XIyZTwR2hqBgu9SZ-1" target="bZ_3XIyZTwR2hqBgu9SZ-3">
          <mxGeometry relative="1" as="geometry" />
        </mxCell>
        <mxCell id="bZ_3XIyZTwR2hqBgu9SZ-1" value="Arma" style="shape=umlActor;verticalLabelPosition=bottom;verticalAlign=top;html=1;outlineConnect=0;fillColor=#a20025;fontColor=#990000;strokeColor=#6F0000;" vertex="1" parent="1">
          <mxGeometry x="120" y="90" width="30" height="60" as="geometry" />
        </mxCell>
        <mxCell id="bZ_3XIyZTwR2hqBgu9SZ-2" value="Atirar" style="ellipse;whiteSpace=wrap;html=1;fillColor=#a20025;fontColor=#0F0707;strokeColor=#6F0000;" vertex="1" parent="1">
          <mxGeometry x="330" y="20" width="120" height="80" as="geometry" />
        </mxCell>
        <mxCell id="bZ_3XIyZTwR2hqBgu9SZ-3" value="regarregar" style="ellipse;whiteSpace=wrap;html=1;fillColor=#a20025;fontColor=#0F0707;strokeColor=#6F0000;" vertex="1" parent="1">
          <mxGeometry x="230" y="110" width="120" height="80" as="geometry" />
        </mxCell>
        <mxCell id="bZ_3XIyZTwR2hqBgu9SZ-17" style="edgeStyle=orthogonalEdgeStyle;rounded=0;orthogonalLoop=1;jettySize=auto;html=1;entryX=0;entryY=0.5;entryDx=0;entryDy=0;fillColor=#1ba1e2;strokeColor=#006EAF;" edge="1" parent="1" source="bZ_3XIyZTwR2hqBgu9SZ-4" target="bZ_3XIyZTwR2hqBgu9SZ-6">
          <mxGeometry relative="1" as="geometry" />
        </mxCell>
        <mxCell id="bZ_3XIyZTwR2hqBgu9SZ-18" style="edgeStyle=orthogonalEdgeStyle;rounded=0;orthogonalLoop=1;jettySize=auto;html=1;entryX=0;entryY=0.5;entryDx=0;entryDy=0;fillColor=#1ba1e2;strokeColor=#006EAF;" edge="1" parent="1" source="bZ_3XIyZTwR2hqBgu9SZ-4" target="bZ_3XIyZTwR2hqBgu9SZ-5">
          <mxGeometry relative="1" as="geometry" />
        </mxCell>
        <mxCell id="bZ_3XIyZTwR2hqBgu9SZ-4" value="Loja&lt;br&gt;" style="shape=umlActor;verticalLabelPosition=bottom;verticalAlign=top;html=1;outlineConnect=0;fillColor=#1ba1e2;fontColor=#009999;strokeColor=#006EAF;" vertex="1" parent="1">
          <mxGeometry x="130" y="450" width="30" height="60" as="geometry" />
        </mxCell>
        <mxCell id="bZ_3XIyZTwR2hqBgu9SZ-5" value="comprar carregador" style="ellipse;whiteSpace=wrap;html=1;fillColor=#1ba1e2;fontColor=#0F0707;strokeColor=#006EAF;" vertex="1" parent="1">
          <mxGeometry x="330" y="390" width="120" height="80" as="geometry" />
        </mxCell>
        <mxCell id="bZ_3XIyZTwR2hqBgu9SZ-6" value="comprar arma" style="ellipse;whiteSpace=wrap;html=1;fillColor=#1ba1e2;fontColor=#0F0707;strokeColor=#006EAF;" vertex="1" parent="1">
          <mxGeometry x="230" y="480" width="120" height="80" as="geometry" />
        </mxCell>
        <mxCell id="bZ_3XIyZTwR2hqBgu9SZ-15" style="edgeStyle=orthogonalEdgeStyle;rounded=0;orthogonalLoop=1;jettySize=auto;html=1;entryX=0;entryY=0.5;entryDx=0;entryDy=0;fillColor=#008a00;strokeColor=#005700;" edge="1" parent="1" source="bZ_3XIyZTwR2hqBgu9SZ-8" target="bZ_3XIyZTwR2hqBgu9SZ-11">
          <mxGeometry relative="1" as="geometry" />
        </mxCell>
        <mxCell id="bZ_3XIyZTwR2hqBgu9SZ-16" style="edgeStyle=orthogonalEdgeStyle;rounded=0;orthogonalLoop=1;jettySize=auto;html=1;entryX=0;entryY=0.5;entryDx=0;entryDy=0;fillColor=#008a00;strokeColor=#005700;" edge="1" parent="1" source="bZ_3XIyZTwR2hqBgu9SZ-8" target="bZ_3XIyZTwR2hqBgu9SZ-10">
          <mxGeometry relative="1" as="geometry" />
        </mxCell>
        <mxCell id="bZ_3XIyZTwR2hqBgu9SZ-8" value="Fabrica&lt;br&gt;" style="shape=umlActor;verticalLabelPosition=bottom;verticalAlign=top;html=1;outlineConnect=0;fillColor=#008a00;fontColor=#00CC00;strokeColor=#005700;" vertex="1" parent="1">
          <mxGeometry x="130" y="260" width="30" height="60" as="geometry" />
        </mxCell>
        <mxCell id="bZ_3XIyZTwR2hqBgu9SZ-10" value="fabricar armas" style="ellipse;whiteSpace=wrap;html=1;fillColor=#008a00;fontColor=#0F0707;strokeColor=#005700;" vertex="1" parent="1">
          <mxGeometry x="330" y="200" width="120" height="80" as="geometry" />
        </mxCell>
        <mxCell id="bZ_3XIyZTwR2hqBgu9SZ-11" value="fabricar carregadores" style="ellipse;whiteSpace=wrap;html=1;fillColor=#008a00;fontColor=#0F0707;strokeColor=#005700;" vertex="1" parent="1">
          <mxGeometry x="230" y="290" width="120" height="80" as="geometry" />
        </mxCell>
      </root>
    </mxGraphModel>
  </diagram>
</mxfile>
